<?xml version="1.0" encoding="UTF-8"?>
<svg width="280" height="100" viewBox="0 0 280 100" fill="none" xmlns="http://www.w3.org/2000/svg">
  <defs>
    <linearGradient id="cShield" x1="50" y1="10" x2="50" y2="92" gradientUnits="userSpaceOnUse">
      <stop offset="0%" stop-color="#1A4E80" />
      <stop offset="100%" stop-color="#071D35" />
    </linearGradient>
    <linearGradient id="cPin" x1="50" y1="36" x2="50" y2="66" gradientUnits="userSpaceOnUse">
      <stop offset="0%" stop-color="#00D48C" />
      <stop offset="100%" stop-color="#009E65" />
    </linearGradient>
  </defs>
  
  <!-- Background (optional, remove for transparent) -->
  <rect width="280" height="100" rx="20" fill="#081E36"/>
  
  <!-- Icon -->
  <g transform="translate(26, 24)">
    <g transform="scale(0.52)">
      <path d="M50 10 L84 24 L84 54 C84 73 69 86 50 93 C31 86 16 73 16 54 L16 24 Z" fill="url(#cShield)" />
      <path d="M50 10 L84 24 L84 54 C84 73 69 86 50 93 C31 86 16 73 16 54 L16 24 Z" fill="none" stroke="#00B87A" stroke-width="2" stroke-opacity="0.9" />
      <path d="M50 36 C43 36 37.5 41.5 37.5 48.5 C37.5 57.5 50 70 50 70 C50 70 62.5 57.5 62.5 48.5 C62.5 41.5 57 36 50 36 Z" fill="white" opacity="0.96" />
      <circle cx="50" cy="48.5" r="7" fill="url(#cPin)" />
      <circle cx="50" cy="48.5" r="2.6" fill="white" />
    </g>
  </g>
  
  <!-- Text -->
  <text x="78" y="48" font-family="system-ui, -apple-system, sans-serif" font-size="26" font-weight="800" letter-spacing="-1">
    <tspan fill="#FFFFFF">Nav</tspan><tspan fill="#00B87A">Guard</tspan>
  </text>
  <text x="78" y="62" font-family="system-ui, -apple-system, sans-serif" font-size="8.5" font-weight="600" letter-spacing="3" fill="#3D87A8" text-transform="uppercase">
    TRAVEL SAFE.STAY VERIFIED
  </text>
</svg>